<?xml version="1.0" standalone="no"?>
<!DOCTYPE svg PUBLIC "-//W3C//DTD SVG 20010904//EN"
 "http://www.w3.org/TR/2001/REC-SVG-20010904/DTD/svg10.dtd">
<svg version="1.0" xmlns="http://www.w3.org/2000/svg"
 width="512.000000pt" height="512.000000pt" viewBox="0 0 512.000000 512.000000"
 preserveAspectRatio="xMidYMid meet">
<metadata>
Created by potrace 1.11, written by Peter Selinger 2001-2013
</metadata>
<g transform="translate(0.000000,512.000000) scale(0.100000,-0.100000)"
fill="#000000" stroke="none">
<path d="M2803 5024 c-3 -9 0 -40 6 -70 14 -59 8 -106 -15 -125 -11 -9 -14 -8
-14 4 0 26 -22 67 -36 67 -7 0 -29 -10 -49 -22 -19 -13 -50 -32 -68 -43 -26
-17 -38 -36 -62 -106 -29 -84 -49 -119 -66 -119 -19 0 -50 47 -69 105 -23 70
-31 78 -112 123 -76 42 -112 42 -138 0 -26 -44 -26 -51 15 -157 34 -89 45
-151 25 -151 -15 0 -104 97 -152 167 -24 33 -58 69 -76 79 -36 19 -36 20 -49
-20 -7 -24 -24 -35 -98 -68 -141 -61 -385 -163 -438 -183 -97 -36 -64 -44 91
-21 90 14 162 12 162 -5 0 -10 -54 -25 -140 -39 -36 -5 -90 -16 -120 -25 -65
-18 -81 -19 -114 -3 -21 9 -24 14 -14 26 10 11 4 10 -27 -3 -22 -9 -62 -26
-90 -37 -101 -40 -741 -310 -783 -330 l-42 -20 0 -294 0 -294 38 -19 39 -20 6
-128 c16 -366 78 -1507 85 -1563 7 -61 9 -66 52 -98 24 -19 52 -51 61 -71 26
-58 108 -122 314 -243 104 -62 361 -216 570 -342 527 -318 586 -352 700 -407
172 -83 284 -96 419 -49 160 55 1165 572 1616 831 168 96 235 148 257 197 10
20 27 49 39 64 25 30 24 15 49 1023 8 330 18 646 21 703 6 98 7 102 30 108 13
4 33 18 44 31 19 24 20 42 20 293 0 240 -2 270 -17 289 -15 18 -139 72 -769
336 l-31 13 2 -85 c1 -46 -2 -86 -6 -89 -5 -3 -26 4 -48 16 -22 11 -45 20 -50
20 -6 0 -32 14 -58 30 -56 36 -93 38 -207 11 -117 -28 -156 -34 -156 -25 0 24
118 66 235 85 32 5 63 13 67 17 4 4 2 38 -4 75 -9 57 -16 71 -41 89 -28 20
-31 20 -81 5 -28 -8 -78 -21 -111 -27 -90 -19 -305 -95 -410 -146 -51 -25 -98
-43 -104 -39 -24 14 70 101 179 165 122 73 177 103 208 114 33 12 32 12 -163
97 l-197 85 -33 98 c-41 119 -75 164 -92 120z m-513 -585 c0 -16 -19 -9 -30
10 -17 33 -11 48 10 22 11 -13 20 -27 20 -32z m-82 -150 c35 -12 47 -33 28
-49 -22 -18 -162 -40 -311 -50 -163 -10 -483 -2 -492 13 -13 22 85 62 212 85
71 14 525 15 563 1z m-640 -281 c14 -14 4 -33 -50 -101 -70 -89 -41 -160 67
-168 81 -5 104 0 142 35 44 38 181 119 239 140 21 7 59 25 84 40 53 30 80 35
59 10 -16 -20 -182 -128 -282 -185 -43 -24 -94 -56 -114 -71 -20 -16 -42 -28
-49 -28 -8 0 -16 -11 -20 -25 -3 -14 -11 -26 -18 -26 -16 -2 -134 2 -154 5 -9
2 -29 -1 -44 -6 -43 -15 -21 -40 82 -95 49 -26 90 -50 90 -53 0 -3 -9 -16 -20
-30 -18 -23 -21 -24 -52 -11 -18 7 -62 24 -97 37 -35 14 -91 41 -125 61 -58
34 -135 67 -276 119 -149 56 -159 65 -119 105 39 39 209 110 309 129 111 21
148 34 250 89 85 46 82 45 98 29z m920 -28 c5 -46 -26 -245 -45 -293 -12 -29
-20 -37 -37 -35 -16 2 -23 15 -34 58 -7 30 -13 74 -13 97 0 31 -6 49 -21 63
-17 16 -19 23 -10 32 7 7 12 22 12 33 0 36 74 87 120 82 21 -2 26 -8 28 -37z
m171 -104 c19 -10 34 -31 46 -63 10 -26 29 -68 41 -93 28 -53 29 -70 9 -147
-8 -31 -15 -79 -15 -105 0 -44 -2 -48 -24 -48 -48 0 -73 17 -80 53 -3 19 -16
43 -27 53 -20 18 -21 18 -35 -1 -8 -10 -14 -29 -14 -40 0 -20 -4 -21 -37 -16
-34 6 -37 9 -48 57 -15 69 -12 75 40 67 57 -7 63 5 73 151 5 67 14 121 22 130
15 19 14 19 49 2z m710 -105 c35 -19 34 -24 -10 -34 -32 -8 -65 13 -56 37 8
20 23 20 66 -3z m201 -215 c0 -7 -130 -76 -143 -77 -7 0 -52 -20 -102 -44
l-90 -44 -18 21 c-20 24 -10 37 28 38 11 0 58 18 105 40 47 22 94 40 105 41
11 0 36 7 55 14 36 14 60 18 60 11z"/>
<path d="M3810 4573 c1 -20 49 -134 50 -117 0 14 -41 134 -46 134 -2 0 -4 -8
-4 -17z"/>
</g>
</svg>
